# xmcd
#
# Track frame offsets: 
#        150
#        34548
#        69998
#        92818
#        131108
#        158325
#        201025
#        251540
#        296983
#        320883
#
# Disc length: 4312 seconds
#
# Revision: 0
# Processed by: cddbd v1.5.2PL0 Copyright (c) Steve Scherf et al.
# Submitted via: ExactAudioCopy v0.99pb5
#
DISCID=8e10d60a
DTITLE=Rory Gallagher - Irish Tour
DYEAR=1974
DGENRE=Blues
TTITLE0=Cradle Rock
TTITLE1=I Wonder Who
TTITLE2=Tattoo'd Lady
TTITLE3=Too Much Alcohol
TTITLE4=As The Crow Flies
TTITLE5=A Million Miles Away
TTITLE6=Walk On Hot Coals
TTITLE7=Who's That Coming?
TTITLE8=Back On My Stompin' Ground (After Hours)
TTITLE9=Maritime
EXTD=
EXTT0=
EXTT1=
EXTT2=
EXTT3=
EXTT4=
EXTT5=
EXTT6=
EXTT7=
EXTT8=
EXTT9=
PLAYORDER=
